HIERARCHY
ROOT Hips
{
	OFFSET 0.000000 100.481300 0.000000
	CHANNELS 6 Xposition Yposition Zposition Xrotation Yrotation Zrotation
	JOINT Spine
	{
		OFFSET -0.279200 12.230698 -2.892100
		CHANNELS 3 Xrotation Yrotation Zrotation
		JOINT Spine1
		{
			OFFSET -0.325700 14.269203 -3.374200
			CHANNELS 3 Xrotation Yrotation Zrotation
			JOINT Spine2
			{
				OFFSET -0.372300 16.307602 -0.352600
				CHANNELS 3 Xrotation Yrotation Zrotation
				JOINT Neck
				{
					OFFSET -0.418800 17.814194 8.416900
					CHANNELS 3 Xrotation Yrotation Zrotation
					JOINT Head
					{
						OFFSET 0.000000 7.031097 3.806800
						CHANNELS 3 Xrotation Yrotation Zrotation
						JOINT HeadTop_End
						{
							OFFSET 0.000000 24.646606 12.978600
							CHANNELS 3 Xrotation Yrotation Zrotation
							End Site
							{
								OFFSET 0.000000 27.854965 0.000000
							}
						}
					}
				}
				JOINT LeftShoulder
				{
					OFFSET 16.952999 14.495407 -7.737500
					CHANNELS 3 Xrotation Yrotation Zrotation
					JOINT LeftArm
					{
						OFFSET 9.308998 -2.777710 0.208600
						CHANNELS 3 Xrotation Yrotation Zrotation
						JOINT LeftForeArm
						{
							OFFSET 29.972298 0.000000 0.000000
							CHANNELS 3 Xrotation Yrotation Zrotation
							JOINT LeftHand
							{
								OFFSET 26.026505 0.000000 0.000000
								CHANNELS 3 Xrotation Yrotation Zrotation
								JOINT LeftHandThumb1
								{
									OFFSET 12.240501 -7.147949 9.207150
									CHANNELS 3 Xrotation Yrotation Zrotation
									JOINT LeftHandThumb2
									{
										OFFSET 4.138618 -2.389435 2.389433
										CHANNELS 3 Xrotation Yrotation Zrotation
										JOINT LeftHandThumb3
										{
											OFFSET 2.726913 -1.574387 1.574386
											CHANNELS 3 Xrotation Yrotation Zrotation
											JOINT LeftHandThumb4
											{
												OFFSET 3.941010 -2.275345 2.275342
												CHANNELS 3 Xrotation Yrotation Zrotation
												End Site
												{
													OFFSET -0.005798 5.087799 0.009903
												}
											}
										}
									}
								}
								JOINT LeftHandIndex1
								{
									OFFSET 24.424698 -1.985611 5.953459
									CHANNELS 3 Xrotation Yrotation Zrotation
									JOINT LeftHandIndex2
									{
										OFFSET 6.426697 0.000000 0.000000
										CHANNELS 3 Xrotation Yrotation Zrotation
										JOINT LeftHandIndex3
										{
											OFFSET 5.337898 0.000000 0.000000
											CHANNELS 3 Xrotation Yrotation Zrotation
											JOINT LeftHandIndex4
											{
												OFFSET 4.409401 0.000000 0.000000
												CHANNELS 3 Xrotation Yrotation Zrotation
												End Site
												{
													OFFSET 0.000000 4.409363 0.014373
												}
											}
										}
									}
								}
								JOINT LeftHandMiddle1
								{
									OFFSET 23.810104 0.000000 0.000000
									CHANNELS 3 Xrotation Yrotation Zrotation
									JOINT LeftHandMiddle2
									{
										OFFSET 7.176498 0.000000 0.000000
										CHANNELS 3 Xrotation Yrotation Zrotation
										JOINT LeftHandMiddle3
										{
											OFFSET 6.774902 0.000000 0.000000
											CHANNELS 3 Xrotation Yrotation Zrotation
											JOINT LeftHandMiddle4
											{
												OFFSET 5.403328 0.000000 0.000000
												CHANNELS 3 Xrotation Yrotation Zrotation
												End Site
												{
													OFFSET -0.027702 5.403244 0.017414
												}
											}
										}
									}
								}
								JOINT LeftHandRing1
								{
									OFFSET 22.908401 -0.839279 -6.020567
									CHANNELS 3 Xrotation Yrotation Zrotation
									JOINT LeftHandRing2
									{
										OFFSET 6.337502 0.000000 0.000000
										CHANNELS 3 Xrotation Yrotation Zrotation
										JOINT LeftHandRing3
										{
											OFFSET 5.779297 0.000000 0.000000
											CHANNELS 3 Xrotation Yrotation Zrotation
											JOINT LeftHandRing4
											{
												OFFSET 4.965698 0.000000 0.000000
												CHANNELS 3 Xrotation Yrotation Zrotation
												End Site
												{
													OFFSET 0.000000 4.965668 0.016186
												}
											}
										}
									}
								}
								JOINT LeftHandPinky1
								{
									OFFSET 20.037003 -1.530319 -10.950146
									CHANNELS 3 Xrotation Yrotation Zrotation
									JOINT LeftHandPinky2
									{
										OFFSET 5.254700 0.000000 0.000000
										CHANNELS 3 Xrotation Yrotation Zrotation
										JOINT LeftHandPinky3
										{
											OFFSET 4.810204 0.000000 0.000000
											CHANNELS 3 Xrotation Yrotation Zrotation
											JOINT LeftHandPinky4
											{
												OFFSET 3.647202 0.000000 0.000000
												CHANNELS 3 Xrotation Yrotation Zrotation
												End Site
												{
													OFFSET 0.000000 3.647186 0.011889
												}
											}
										}
									}
								}
							}
						}
					}
				}
				JOINT RightShoulder
				{
					OFFSET -15.141001 14.495407 -7.737500
					CHANNELS 3 Xrotation Yrotation Zrotation
					JOINT RightArm
					{
						OFFSET -9.308998 -2.777710 0.208500
						CHANNELS 3 Xrotation Yrotation Zrotation
						JOINT RightForeArm
						{
							OFFSET -29.972300 0.000000 0.000000
							CHANNELS 3 Xrotation Yrotation Zrotation
							JOINT RightHand
							{
								OFFSET -26.026505 0.000000 0.000000
								CHANNELS 3 Xrotation Yrotation Zrotation
								JOINT RightHandThumb1
								{
									OFFSET -12.240601 -7.148026 9.207092
									CHANNELS 3 Xrotation Yrotation Zrotation
									JOINT RightHandThumb2
									{
										OFFSET -4.138618 -2.389435 2.389433
										CHANNELS 3 Xrotation Yrotation Zrotation
										JOINT RightHandThumb3
										{
											OFFSET -2.726974 -1.574417 1.574421
											CHANNELS 3 Xrotation Yrotation Zrotation
											JOINT RightHandThumb4
											{
												OFFSET -3.941010 -2.275345 2.275343
												CHANNELS 3 Xrotation Yrotation Zrotation
												End Site
												{
													OFFSET 0.005814 5.087799 0.009927
												}
											}
										}
									}
								}
								JOINT RightHandIndex1
								{
									OFFSET -24.424698 -1.985657 5.953444
									CHANNELS 3 Xrotation Yrotation Zrotation
									JOINT RightHandIndex2
									{
										OFFSET -6.426697 0.000000 0.000000
										CHANNELS 3 Xrotation Yrotation Zrotation
										JOINT RightHandIndex3
										{
											OFFSET -5.337898 0.000000 0.000000
											CHANNELS 3 Xrotation Yrotation Zrotation
											JOINT RightHandIndex4
											{
												OFFSET -4.409401 0.000000 0.000000
												CHANNELS 3 Xrotation Yrotation Zrotation
												End Site
												{
													OFFSET 0.000000 4.409363 0.014408
												}
											}
										}
									}
								}
								JOINT RightHandMiddle1
								{
									OFFSET -23.810097 0.000000 0.000000
									CHANNELS 3 Xrotation Yrotation Zrotation
									JOINT RightHandMiddle2
									{
										OFFSET -7.176498 0.000000 0.000000
										CHANNELS 3 Xrotation Yrotation Zrotation
										JOINT RightHandMiddle3
										{
											OFFSET -6.774902 0.000000 0.000000
											CHANNELS 3 Xrotation Yrotation Zrotation
											JOINT RightHandMiddle4
											{
												OFFSET -5.403328 0.000000 0.000000
												CHANNELS 3 Xrotation Yrotation Zrotation
												End Site
												{
													OFFSET 0.027702 5.403244 0.017457
												}
											}
										}
									}
								}
								JOINT RightHandRing1
								{
									OFFSET -22.908302 -0.839325 -6.020576
									CHANNELS 3 Xrotation Yrotation Zrotation
									JOINT RightHandRing2
									{
										OFFSET -6.337502 0.000000 0.000000
										CHANNELS 3 Xrotation Yrotation Zrotation
										JOINT RightHandRing3
										{
											OFFSET -5.779297 0.000000 0.000000
											CHANNELS 3 Xrotation Yrotation Zrotation
											JOINT RightHandRing4
											{
												OFFSET -4.965698 0.000000 0.000000
												CHANNELS 3 Xrotation Yrotation Zrotation
												End Site
												{
													OFFSET 0.000000 4.965668 0.016226
												}
											}
										}
									}
								}
								JOINT RightHandPinky1
								{
									OFFSET -20.037003 -1.530334 -10.950259
									CHANNELS 3 Xrotation Yrotation Zrotation
									JOINT RightHandPinky2
									{
										OFFSET -5.254700 0.000000 0.000000
										CHANNELS 3 Xrotation Yrotation Zrotation
										JOINT RightHandPinky3
										{
											OFFSET -4.810204 0.000000 0.000000
											CHANNELS 3 Xrotation Yrotation Zrotation
											JOINT RightHandPinky4
											{
												OFFSET -3.647202 0.000000 0.000000
												CHANNELS 3 Xrotation Yrotation Zrotation
												End Site
												{
													OFFSET 0.000000 3.647186 0.011917
												}
											}
										}
									}
								}
							}
						}
					}
				}
			}
		}
	}
	JOINT LeftUpLeg
	{
		OFFSET 15.427100 -6.655098 0.678600
		CHANNELS 3 Xrotation Yrotation Zrotation
		JOINT LeftLeg
		{
			OFFSET 4.081073 -39.591068 13.024000
			CHANNELS 3 Xrotation Yrotation Zrotation
			JOINT LeftFoot
			{
				OFFSET -4.081074 -37.707932 -15.979700
				CHANNELS 3 Xrotation Yrotation Zrotation
				JOINT LeftToeBase
				{
					OFFSET 5.346399 -15.068900 20.645000
					CHANNELS 3 Xrotation Yrotation Zrotation
					JOINT LeftToe_End
					{
						OFFSET 2.754700 0.931300 11.300900
						CHANNELS 3 Xrotation Yrotation Zrotation
						End Site
						{
							OFFSET 0.000000 11.669021 0.000000
						}
					}
				}
			}
		}
	}
	JOINT RightUpLeg
	{
		OFFSET -15.569500 -6.655098 0.678600
		CHANNELS 3 Xrotation Yrotation Zrotation
		JOINT RightLeg
		{
			OFFSET -4.081825 -39.591045 13.023800
			CHANNELS 3 Xrotation Yrotation Zrotation
			JOINT RightFoot
			{
				OFFSET 4.081824 -37.707954 -15.979600
				CHANNELS 3 Xrotation Yrotation Zrotation
				JOINT RightToeBase
				{
					OFFSET -5.346400 -15.068900 20.645000
					CHANNELS 3 Xrotation Yrotation Zrotation
					JOINT RightToe_End
					{
						OFFSET -2.754700 0.931300 11.300900
						CHANNELS 3 Xrotation Yrotation Zrotation
						End Site
						{
							OFFSET 0.000000 11.669021 0.000000
						}
					}
				}
			}
		}
	}
}
MOTION
Frames: 5
Frame Time: 0.033333
1.470840 73.520844 3.372908 8.871238 -64.716199 10.988485 14.322752 9.213128 2.417781 3.250453 2.428480 3.388206 3.085099 2.750397 3.354480 -2.963274 3.409152 5.266670 20.634403 24.868505 -2.463646 -0.000001 0.000003 0.000003 0.638818 -5.475704 -6.833093 -48.617608 -3.985143 -46.240097 -0.000353 -84.867819 -0.000357 -135.104106 -17.909176 24.609617 4.709227 9.560366 3.111992 19.473199 -1.474918 7.636922 -4.535284 -9.608520 1.493947 0.000000 0.000005 -0.000003 -0.212812 3.933727 -36.747128 2.942144 5.078898 -60.144576 0.513670 2.400813 -24.150523 -0.000002 0.000001 -0.000001 0.405922 5.507055 -52.453151 3.387141 5.308617 -65.057463 0.282005 1.797438 -17.832384 0.000001 -0.000002 -0.000002 -0.074384 5.736784 -61.061420 4.055029 5.569507 -72.094914 0.582671 2.548977 -25.748000 -0.000000 -0.000001 0.000001 -6.565575 4.545121 -72.425215 3.299626 5.267219 -64.107828 0.175344 1.424011 -14.038878 0.000000 0.000000 -0.000000 3.879585 8.951738 -4.531415 -49.689394 48.826403 72.453267 0.000031 108.431288 -0.000035 -39.639570 -37.296535 -16.729995 8.377153 -4.904136 11.021995 21.620202 -18.183890 -18.379223 -0.702888 -49.821223 -32.535148 -0.000000 -0.000001 -0.000000 -0.920023 1.683574 12.434978 0.748106 -2.533470 32.898293 0.615644 -2.316061 29.767829 0.000000 0.000000 -0.000001 3.413069 -7.186259 51.650249 6.296809 -4.359580 110.634680 0.248694 -1.503054 18.790245 -0.000000 0.000000 -0.000000 -3.349041 -2.600432 57.010571 5.440862 -4.590911 99.698181 1.689411 -3.590700 50.382218 -0.000000 0.000000 -0.000001 -3.996441 -3.303950 64.593864 4.058877 -4.618640 82.610537 2.315533 -4.026790 59.787207 0.000000 0.000000 0.000001 -51.685619 -7.319451 -5.494523 77.699774 3.306493 6.324189 0.109964 -0.469620 -2.934643 -18.875955 2.189749 -9.637745 -0.000001 -0.000001 0.000000 -30.600166 -22.660694 -2.303486 65.064976 8.967938 0.215530 -40.389077 -15.873857 -16.843427 -10.740183 0.000012 -0.000006 0.000000 0.000001 0.000000 
-8.951108 74.670921 4.025657 7.655286 -61.087115 11.181958 15.641338 11.400215 1.867221 3.062962 2.830704 3.380816 2.894202 3.175504 3.322928 -2.905694 3.139999 4.971201 22.875168 21.975790 -1.457897 -0.000001 0.000000 0.000002 0.642962 -6.048804 -7.168865 -51.948366 -9.652403 -49.224255 0.000011 -74.651085 0.000026 -139.730576 -12.299344 18.193483 5.131355 9.777147 0.801756 17.371360 0.279505 5.633018 -5.070986 -9.285146 0.842230 0.000000 0.000001 -0.000001 -0.264679 4.299373 -42.796312 3.193032 5.214331 -62.940965 0.519697 2.414202 -24.293769 -0.000002 -0.000000 0.000001 0.858691 6.049032 -56.904365 3.104190 5.168193 -61.959166 0.205580 1.539847 -15.207804 -0.000001 0.000001 0.000000 0.193538 6.160788 -65.157409 4.041962 5.565297 -71.959991 0.515434 2.404718 -24.192105 0.000001 0.000000 -0.000000 -5.758430 6.010462 -78.696333 3.468277 5.345447 -65.931324 0.143295 1.289100 -12.684940 -0.000001 -0.000000 0.000001 3.951039 9.872702 -5.698188 -48.730780 49.171946 68.934449 0.000134 108.056318 -0.000134 -39.530891 -38.646044 -22.878489 11.205438 -3.800728 9.361292 25.610600 -16.533617 -18.898066 -0.882914 -52.011153 -33.352244 -0.000001 0.000000 0.000001 -1.008561 1.434661 14.053487 0.767363 -2.562961 33.331473 0.629033 -2.339305 30.097512 0.000000 0.000000 -0.000001 3.337747 -7.043974 53.740263 6.357056 -4.336488 111.429052 0.185143 -1.301334 16.192201 0.000000 -0.000000 0.000000 -3.685588 -2.589062 58.451222 5.617898 -4.557198 101.917815 1.643249 -3.552060 49.641306 -0.000000 -0.000000 -0.000002 -5.941029 -3.002450 68.020105 4.339719 -4.646372 86.087008 2.422431 -4.087004 61.297902 0.000000 0.000000 -0.000001 -64.757467 -6.839126 -5.957654 86.041512 6.030400 1.528660 4.840038 -1.415446 2.013991 -7.972721 0.000030 -0.000000 0.000001 -0.000001 0.000001 -16.935601 -25.288967 -1.662933 59.941242 8.446775 2.823091 -46.029625 -12.600785 -16.911439 -12.244998 -0.000015 -0.000002 0.000000 0.000000 0.000000 
-20.259357 78.671890 4.815212 11.687038 -59.029042 17.132932 17.130295 13.767262 -2.335429 3.033112 3.539368 2.754555 2.850167 3.909449 2.644129 -3.011212 2.942405 4.626151 20.940165 20.266703 1.051107 0.000001 0.000003 0.000003 0.805434 -7.533975 -6.636959 -56.453364 -12.607620 -51.112300 0.000075 -68.874460 0.000088 -142.130130 -7.330576 14.601059 5.223082 10.110983 1.181909 15.382879 1.481310 3.671502 -5.593683 -8.841995 0.089792 0.000001 -0.000001 0.000000 -0.159755 4.341958 -41.742950 3.359942 5.295939 -64.763232 0.606498 2.597769 -26.278984 -0.000001 -0.000001 0.000001 1.832823 6.722307 -58.704431 3.207844 5.221856 -63.103769 0.141026 1.279012 -12.583887 -0.000004 -0.000001 0.000003 0.141707 6.190549 -65.916633 4.066707 5.573254 -72.215098 0.453078 2.260945 -22.660664 -0.000000 -0.000004 -0.000002 -5.696722 6.319809 -80.240379 3.310814 5.272607 -64.229637 0.104422 1.102340 -10.822677 0.000000 0.000001 -0.000001 4.268152 12.387085 -8.171525 -46.522853 48.057197 64.332466 0.000183 110.439979 -0.000168 -39.652352 -39.391969 -31.139198 14.064843 -2.731029 7.694580 28.976722 -15.433483 -19.000411 -1.022432 -54.191346 -33.999551 -0.000005 0.000001 0.000000 -1.090192 1.900520 13.734708 0.872712 -2.716222 35.618569 0.720653 -2.490577 32.272080 -0.000000 -0.000000 0.000000 2.712783 -6.551360 55.831073 6.386515 -4.324844 111.819363 0.130751 -1.096959 13.594593 0.000000 -0.000000 0.000000 -3.843486 -2.653230 59.552078 5.601936 -4.560545 101.717192 1.599064 -3.514114 48.924174 -0.000001 0.000000 -0.000001 -5.553206 -3.500486 69.975370 4.176913 -4.632384 84.074212 2.306935 -4.021771 59.664598 -0.000000 0.000000 -0.000001 -75.544146 -1.317955 -2.830132 89.073023 4.720472 -1.172010 0.849062 -1.237878 3.949047 -3.964328 -0.000018 -0.000000 0.000001 -0.000000 0.000001 -5.062550 -26.021612 -0.302196 47.942457 7.792792 4.531729 -43.825311 -10.686573 -14.454871 -14.083888 -0.000029 -0.000007 0.000000 -0.000000 -0.000000 
-32.571320 86.724213 5.348346 13.095853 -56.393522 20.410757 20.282894 14.176552 -6.303061 3.564496 4.056203 1.944421 3.359918 4.442882 1.777293 -3.464726 2.833652 4.256935 17.242082 19.341349 4.550243 0.000001 0.000002 -0.000001 1.048949 -8.299931 -6.659405 -60.956433 -16.156022 -52.784013 -0.000003 -65.597280 0.000002 -143.945308 -4.274541 11.209849 5.207306 9.864902 0.437479 16.170570 -1.303276 3.740128 -5.467883 -9.974550 1.805642 0.000001 0.000002 -0.000001 -0.138310 4.168829 -38.774523 3.375558 5.303235 -64.932218 0.729582 2.833167 -28.876564 0.000003 0.000001 -0.000001 2.533802 7.160846 -60.258675 3.505277 5.361767 -66.328090 0.189743 1.480391 -14.606947 -0.000000 -0.000000 0.000001 0.186860 6.292076 -67.074254 4.088920 5.580289 -72.443705 0.504074 2.379301 -23.920301 -0.000000 0.000002 -0.000001 -5.304203 6.548646 -81.114903 2.995488 5.109049 -60.745483 0.094252 1.047717 -10.280090 0.000001 0.000003 -0.000001 4.063254 12.832255 -10.385506 -45.351329 46.752409 62.273881 0.000077 113.162438 -0.000099 -36.919696 -40.179247 -35.610393 11.853127 -5.338326 7.221776 27.369312 -16.576857 -18.220949 -4.124772 -53.828113 -38.228712 -0.000004 -0.000001 -0.000001 -0.978500 2.138834 12.045276 0.989006 -2.871446 38.004351 0.831075 -2.657237 34.730617 -0.000000 -0.000000 -0.000000 2.209384 -6.209376 56.708195 6.351997 -4.338440 111.362512 0.171855 -1.254750 15.597417 -0.000000 -0.000000 0.000001 -3.598155 -2.903336 60.297545 5.442273 -4.590664 99.715728 1.637971 -3.547594 49.556239 -0.000000 -0.000000 0.000002 -4.456060 -4.022504 70.765309 3.776525 -4.573341 79.088434 2.090243 -3.887190 56.523295 0.000000 0.000000 0.000001 -78.420817 2.748842 -0.366742 85.272282 5.052073 -1.384791 -5.948913 -0.525946 0.579957 -2.675116 -0.000023 0.000004 0.000000 0.000002 -0.000000 8.809595 -25.701660 2.685549 27.127734 6.957344 6.786175 -28.852143 -12.975015 -10.426836 -19.813013 -0.005451 0.125966 0.000000 0.000000 -0.000000 
-44.113228 93.092903 5.355052 12.608099 -52.581556 20.817438 22.259139 11.644696 -9.046447 4.433706 4.021815 1.047728 4.224149 4.408234 0.866904 -4.039323 2.627453 4.456057 14.053946 18.767577 7.796546 0.000003 0.000000 -0.000000 1.174631 -6.798052 -4.287773 -65.318007 -18.056402 -56.899909 0.000061 -63.959633 0.000050 -143.409466 -3.541145 8.368291 4.829176 8.769827 -1.053908 22.318422 -7.915907 8.679525 -4.680963 -14.321042 7.841095 0.000002 0.000003 0.000000 -0.344392 3.549484 -34.084389 3.057449 5.143112 -61.438897 0.801777 2.960147 -30.305273 -0.000002 -0.000001 -0.000002 2.563710 7.183084 -60.733503 4.005382 5.553303 -71.582732 0.514160 2.401899 -24.161991 0.000000 0.000002 0.000003 0.197967 6.365581 -68.041286 4.136944 5.595190 -72.936844 0.794817 2.948194 -30.169786 0.000000 0.000001 -0.000000 -4.511007 6.606769 -80.744611 2.653574 4.902648 -56.828444 0.151132 1.323487 -13.029337 -0.000001 0.000000 -0.000001 3.138178 11.279676 -11.012731 -44.917909 45.027773 62.323133 -0.000014 114.817816 0.000010 -32.416290 -38.647007 -33.906405 0.652390 -12.613158 7.986878 18.195798 -20.301636 -17.265400 -11.186989 -48.299976 -46.710055 -0.000001 0.000001 0.000001 -0.630245 1.475840 9.483052 1.007652 -2.895113 38.374786 0.866377 -2.707356 35.484434 0.000000 0.000000 -0.000000 2.153381 -6.173251 56.021181 6.261125 -4.372790 110.166129 0.439049 -1.975817 25.054920 -0.000001 -0.000000 0.000001 -2.519768 -3.550678 60.542394 5.167555 -4.629185 96.298571 1.846148 -3.714614 52.841984 0.000000 0.000000 0.000000 -2.827903 -4.529949 70.239248 3.261686 -4.443605 72.545707 1.870205 -3.732718 53.212887 0.000000 -0.000000 -0.000001 -83.902262 6.800982 -1.751118 82.475169 6.509624 -0.151222 -7.797481 -1.265689 5.179388 -3.532978 0.000019 0.000002 0.000000 0.000003 -0.000001 9.368217 -20.248787 4.827558 22.358863 1.415524 4.640295 0.100825 -16.833619 -1.462443 -46.757426 -0.322443 0.653101 -0.000000 0.000000 -0.000000 
